<?xml version="1.0" encoding="utf-8"?>
<!-- Generator: Adobe Illustrator 24.3.0, SVG Export Plug-In . SVG Version: 6.00 Build 0)  -->
<svg version="1.1" id="Layer_1" xmlns="http://www.w3.org/2000/svg" xmlns:xlink="http://www.w3.org/1999/xlink" x="0px" y="0px"
	 viewBox="0 0 2848 1720" style="enable-background:new 0 0 2848 1720;" xml:space="preserve">
<style type="text/css">
	.st0{fill:url(#SVGID_1_);}
	.st1{fill:url(#SVGID_2_);}
	.st2{fill:url(#SVGID_3_);}
	.st3{fill:url(#SVGID_4_);}
	.st4{fill:url(#SVGID_5_);}
	.st5{fill:url(#SVGID_6_);}
	.st6{fill:url(#SVGID_7_);}
	.st7{fill:url(#SVGID_8_);}
	.st8{fill:url(#SVGID_9_);}
	.st9{fill:url(#SVGID_10_);}
	.st10{fill:url(#SVGID_11_);}
	.st11{fill:url(#SVGID_12_);}
	.st12{fill:url(#SVGID_13_);}
	.st13{fill:url(#SVGID_14_);}
	.st14{fill:url(#SVGID_15_);}
	.st15{fill:url(#SVGID_16_);}
	.st16{fill:url(#SVGID_17_);}
	.st17{fill:url(#SVGID_18_);}
	.st18{fill:url(#SVGID_19_);}
	.st19{fill:url(#SVGID_20_);}
	.st20{fill:url(#SVGID_21_);}
	.st21{fill:url(#SVGID_22_);}
	.st22{fill:url(#SVGID_23_);}
	.st23{fill:#FFFFFF;}
	.st24{fill:url(#SVGID_24_);}
	.st25{fill:url(#SVGID_25_);}
	.st26{fill:url(#SVGID_26_);}
	.st27{fill:url(#SVGID_27_);}
	.st28{fill:url(#SVGID_28_);}
	.st29{fill:url(#SVGID_29_);}
	.st30{fill:url(#SVGID_30_);}
	.st31{fill:url(#SVGID_31_);}
	.st32{fill:url(#SVGID_32_);}
	.st33{fill:url(#SVGID_33_);}
	.st34{fill:url(#SVGID_34_);}
	.st35{fill:url(#SVGID_35_);}
	.st36{fill:url(#SVGID_36_);}
	.st37{fill:url(#SVGID_37_);}
	.st38{fill:url(#SVGID_38_);}
	.st39{fill:url(#SVGID_39_);}
	.st40{fill:url(#SVGID_40_);}
	.st41{fill:url(#SVGID_41_);}
	.st42{fill:url(#SVGID_42_);}
	.st43{fill:url(#SVGID_43_);}
	.st44{fill:url(#SVGID_44_);}
	.st45{fill:url(#SVGID_45_);}
	.st46{fill:url(#SVGID_46_);}
</style>
<rect x="-29.64" y="-45.21" width="2941.28" height="1819.91"/>
<rect x="2968.17" y="-45.21" width="2941.28" height="1819.91"/>
<g>
	<g>
		<g>
			<linearGradient id="SVGID_1_" gradientUnits="userSpaceOnUse" x1="4307.6523" y1="851.2979" x2="5020.6792" y2="851.2979">
				<stop  offset="0" style="stop-color:#2AC8E7"/>
				<stop  offset="1" style="stop-color:#9742CA"/>
			</linearGradient>
			<path class="st0" d="M4344.05,814.71c0-1.23,0.75-2.14,2.24-2.73c1.49-0.58,3.18-0.88,5.07-0.88c1.82,0,3.49,0.29,5.02,0.88
				c1.53,0.59,2.29,1.5,2.29,2.73v73.09c0,1.23-0.76,2.16-2.29,2.78c-1.53,0.62-3.2,0.92-5.02,0.92c-1.89,0-3.57-0.31-5.07-0.92
				c-1.5-0.62-2.24-1.54-2.24-2.78V814.71z"/>
			<linearGradient id="SVGID_2_" gradientUnits="userSpaceOnUse" x1="4307.6523" y1="851.2979" x2="5020.6792" y2="851.2979">
				<stop  offset="0" style="stop-color:#2AC8E7"/>
				<stop  offset="1" style="stop-color:#9742CA"/>
			</linearGradient>
			<path class="st1" d="M4391.9,891.5c-4.74,0-8.64-0.68-11.69-2.05c-3.05-1.36-5.46-3.2-7.21-5.51c-1.75-2.31-2.96-4.97-3.61-7.99
				c-0.65-3.02-0.97-6.22-0.97-9.6v-51.65c0-1.23,0.75-2.14,2.24-2.73c1.49-0.58,3.18-0.88,5.07-0.88c1.82,0,3.49,0.29,5.02,0.88
				c1.53,0.59,2.29,1.5,2.29,2.73v52.43c0,3.77,0.73,6.34,2.19,7.7c1.46,1.36,3.62,2.05,6.48,2.05h50.67c1.23,0,2.16,0.76,2.78,2.29
				c0.62,1.53,0.93,3.2,0.93,5.02c0,1.88-0.31,3.57-0.93,5.07c-0.62,1.49-1.54,2.24-2.78,2.24H4391.9z"/>
			<linearGradient id="SVGID_3_" gradientUnits="userSpaceOnUse" x1="4307.6523" y1="852.0288" x2="5020.6792" y2="852.0288">
				<stop  offset="0" style="stop-color:#2AC8E7"/>
				<stop  offset="1" style="stop-color:#9742CA"/>
			</linearGradient>
			<path class="st2" d="M4541.39,851.44c0,7.41-1.04,13.74-3.12,19c-2.08,5.26-5.12,9.55-9.11,12.86c-3.99,3.31-8.9,5.75-14.72,7.31
				c-5.81,1.56-12.46,2.34-19.93,2.34c-7.47,0-14.02-0.78-19.64-2.34c-5.62-1.56-10.33-4-14.13-7.31c-3.8-3.31-6.66-7.6-8.58-12.86
				c-1.92-5.26-2.87-11.6-2.87-19v-36.74c0-1.23,0.75-2.14,2.24-2.73c1.49-0.58,3.18-0.88,5.07-0.88c1.82,0,3.49,0.29,5.02,0.88
				c1.53,0.59,2.29,1.5,2.29,2.73v36.74c0,4.81,0.7,8.92,2.1,12.33c1.4,3.41,3.41,6.22,6.04,8.43c2.63,2.21,5.83,3.83,9.6,4.87
				c3.77,1.04,8.06,1.56,12.86,1.56c4.74,0,9.09-0.52,13.06-1.56c3.96-1.04,7.37-2.66,10.23-4.87c2.86-2.21,5.07-5.02,6.63-8.43
				c1.56-3.41,2.34-7.52,2.34-12.33v-36.74c0-1.23,0.75-2.14,2.24-2.73c1.49-0.58,3.18-0.88,5.07-0.88c1.82,0,3.49,0.29,5.02,0.88
				c1.53,0.59,2.29,1.5,2.29,2.73V851.44z"/>
			<linearGradient id="SVGID_4_" gradientUnits="userSpaceOnUse" x1="4307.6523" y1="850.275" x2="5020.6792" y2="850.275">
				<stop  offset="0" style="stop-color:#2AC8E7"/>
				<stop  offset="1" style="stop-color:#9742CA"/>
			</linearGradient>
			<path class="st3" d="M4607.27,836.24c-1.5-3.12-3.28-5.47-5.36-7.06c-2.08-1.59-4.22-2.39-6.43-2.39c-2.14,0-4.24,0.76-6.29,2.29
				c-2.05,1.53-3.82,3.88-5.31,7.07l-23.88,49.7c-0.59,1.24-1.84,2.14-3.75,2.73c-1.92,0.59-3.91,0.88-5.99,0.88
				c-0.91,0-1.8-0.05-2.68-0.15c-0.88-0.1-1.67-0.26-2.39-0.49c-0.72-0.23-1.3-0.52-1.75-0.88c-0.46-0.36-0.68-0.76-0.68-1.22
				c0-0.39,0.06-0.68,0.2-0.88l24.07-49.51c4.09-8.44,8.67-14.76,13.74-18.95c5.07-4.19,10-6.29,14.81-6.29
				c4.87,0,9.81,2.08,14.81,6.24c5,4.16,9.55,10.43,13.64,18.81l24.17,49.7c0.13,0.2,0.19,0.49,0.19,0.88
				c0,0.45-0.23,0.86-0.68,1.22c-0.46,0.36-1.04,0.65-1.75,0.88c-0.72,0.23-1.53,0.39-2.44,0.49c-0.91,0.1-1.79,0.15-2.63,0.15
				c-2.08,0-4.08-0.29-5.99-0.88c-1.92-0.58-3.17-1.49-3.75-2.73L4607.27,836.24z M4605.91,840.33l8.48,17.44l-13.55,28.07
				c-0.58,1.24-1.84,2.14-3.75,2.73c-1.92,0.59-3.91,0.88-5.99,0.88c-0.91,0-1.8-0.05-2.68-0.15c-0.88-0.1-1.67-0.26-2.39-0.49
				c-0.72-0.23-1.3-0.52-1.75-0.88c-0.46-0.36-0.68-0.76-0.68-1.22c0-0.39,0.06-0.68,0.19-0.88L4605.91,840.33z M4648.1,836.24
				c-1.49-3.12-3.28-5.47-5.36-7.06c-2.08-1.59-4.22-2.39-6.43-2.39c-1.82,0-3.6,0.55-5.36,1.66c-1.75,1.11-3.38,2.83-4.87,5.16
				c-2.47-4.81-5.26-8.93-8.38-12.38c3.05-3.44,6.17-5.99,9.36-7.65c3.18-1.66,6.3-2.48,9.36-2.48c4.87,0,9.81,2.08,14.81,6.24
				c5,4.16,9.55,10.43,13.64,18.81l24.17,49.7c0.13,0.2,0.2,0.49,0.2,0.88c0,0.45-0.23,0.86-0.68,1.22s-1.04,0.65-1.75,0.88
				c-0.72,0.23-1.53,0.39-2.44,0.49c-0.91,0.1-1.79,0.15-2.63,0.15c-2.08,0-4.08-0.29-5.99-0.88c-1.92-0.58-3.17-1.49-3.75-2.73
				L4648.1,836.24z"/>
			<linearGradient id="SVGID_5_" gradientUnits="userSpaceOnUse" x1="4307.6523" y1="851.2979" x2="5020.6792" y2="851.2979">
				<stop  offset="0" style="stop-color:#2AC8E7"/>
				<stop  offset="1" style="stop-color:#9742CA"/>
			</linearGradient>
			<path class="st4" d="M4698.97,814.71c0-1.23,0.75-2.14,2.24-2.73c1.49-0.58,3.18-0.88,5.07-0.88c1.82,0,3.49,0.29,5.02,0.88
				c1.53,0.59,2.29,1.5,2.29,2.73v73.09c0,1.23-0.77,2.16-2.29,2.78c-1.53,0.62-3.2,0.92-5.02,0.92c-1.89,0-3.57-0.31-5.07-0.92
				c-1.5-0.62-2.24-1.54-2.24-2.78V814.71z"/>
			<linearGradient id="SVGID_6_" gradientUnits="userSpaceOnUse" x1="4307.6523" y1="851.2979" x2="5020.6792" y2="851.2979">
				<stop  offset="0" style="stop-color:#2AC8E7"/>
				<stop  offset="1" style="stop-color:#9742CA"/>
			</linearGradient>
			<path class="st5" d="M4806.95,891.5c-3.18,0-6.03-0.49-8.53-1.46c-2.5-0.97-4.92-2.5-7.26-4.58c-2.34-2.08-4.73-4.74-7.16-7.99
				c-2.44-3.25-5.21-7.18-8.33-11.79l-19.39-28.36c-2.4-3.51-4.55-6.04-6.43-7.6c-1.88-1.56-3.74-2.34-5.55-2.34
				c-1.43,0-2.84,0.72-4.24,2.14c-1.4,1.43-2.1,3.74-2.1,6.92v51.36c0,1.23-0.77,2.16-2.29,2.78c-1.53,0.62-3.2,0.92-5.02,0.92
				c-1.89,0-3.57-0.31-5.07-0.92c-1.5-0.62-2.24-1.54-2.24-2.78v-51.26c0-4.74,0.63-8.74,1.9-11.99c1.27-3.25,2.86-5.88,4.78-7.89
				c1.91-2.01,3.98-3.44,6.19-4.29c2.21-0.84,4.25-1.27,6.14-1.27c3.18,0,5.99,0.47,8.43,1.41c2.44,0.94,4.81,2.44,7.11,4.48
				c2.31,2.05,4.68,4.71,7.11,7.99c2.44,3.28,5.28,7.26,8.53,11.94l19.39,28.36c2.6,3.83,4.79,6.45,6.58,7.84
				c1.79,1.4,3.59,2.1,5.41,2.1c0.71,0,1.44-0.16,2.19-0.49c0.75-0.32,1.43-0.86,2.05-1.61c0.62-0.75,1.12-1.69,1.51-2.83
				c0.39-1.14,0.58-2.52,0.58-4.14V814.8c0-1.23,0.76-2.16,2.29-2.78c1.52-0.62,3.2-0.93,5.02-0.93c1.88,0,3.57,0.31,5.07,0.93
				c1.49,0.62,2.24,1.54,2.24,2.78v51.26c0,4.81-0.63,8.82-1.9,12.04c-1.27,3.22-2.84,5.83-4.73,7.84
				c-1.88,2.01-3.93,3.44-6.14,4.29C4810.88,891.07,4808.83,891.5,4806.95,891.5z"/>
		</g>
		<g>
			<linearGradient id="SVGID_7_" gradientUnits="userSpaceOnUse" x1="3734.3198" y1="856.5993" x2="4069.4543" y2="856.5993">
				<stop  offset="0" style="stop-color:#2AC8E7"/>
				<stop  offset="1" style="stop-color:#9742CA"/>
			</linearGradient>
			<path class="st6" d="M3949.22,798.81l-101.17,92.4c-5.81,5.31-9.13,12.82-9.13,20.69v13.95l-22.33-22.49
				c-5.53-5.57-5.51-14.57,0.05-20.11l11.74-11.7l0.06,0.06l40.24-39.88c1.78-1.76,4.1-2.64,6.43-2.64c2.36,0,4.72,0.91,6.51,2.72
				c3.55,3.62,9.38,3.64,12.96,0.05l41.78-41.86c3.74-3.75,9.89-3.53,13.36,0.48C3951.83,792.94,3951.61,796.62,3949.22,798.81z"/>
			<linearGradient id="SVGID_8_" gradientUnits="userSpaceOnUse" x1="3724.3413" y1="903.8651" x2="4074.9016" y2="903.8651">
				<stop  offset="0" style="stop-color:#2AC8E7"/>
				<stop  offset="1" style="stop-color:#9742CA"/>
			</linearGradient>
			<path class="st7" d="M3924.67,854.62L3924.67,854.62c-3.22-3.22-8.37-3.46-11.88-0.56l-53.88,49.92
				c-4.8,4.45-7.53,10.7-7.53,17.25v17.86l16.61,16.61v-26.08c0-6.57,2.75-12.84,7.58-17.3l48.42-44.61
				C3928.06,864.41,3928.37,858.32,3924.67,854.62z"/>
			<linearGradient id="SVGID_9_" gradientUnits="userSpaceOnUse" x1="3724.3413" y1="969.7401" x2="4074.9016" y2="969.7401">
				<stop  offset="0" style="stop-color:#2AC8E7"/>
				<stop  offset="1" style="stop-color:#9742CA"/>
			</linearGradient>
			<polygon class="st8" points="3948.4,991.56 3883.84,927.02 3882.06,928.49 3882.06,969.77 3948.4,1036.11 4060.43,924.09 
				4036.59,903.37 			"/>
			<linearGradient id="SVGID_10_" gradientUnits="userSpaceOnUse" x1="3719.3674" y1="783.4176" x2="4094.7949" y2="783.4176">
				<stop  offset="0" style="stop-color:#2AC8E7"/>
				<stop  offset="1" style="stop-color:#9742CA"/>
			</linearGradient>
			<path class="st9" d="M3794.46,837.84v44.34l0.01,0.01l77.22-77.03l29.05-29.05c2.41,4.36,7.05,7.32,12.38,7.32
				c7.8,0,14.13-6.33,14.13-14.13c0-5.33-2.96-9.97-7.32-12.38l28.46-28.46l69.56,69.85c-0.03,0-0.06,0-0.1,0
				c-6.92,0-12.53,5.61-12.53,12.53s5.61,12.53,12.53,12.53s12.53-5.61,12.53-12.53c0-0.01,0-0.03,0-0.04l71.86,72.17l21.83-22.63
				L3948.4,683.89L3794.46,837.84z"/>
			<linearGradient id="SVGID_11_" gradientUnits="userSpaceOnUse" x1="3734.418" y1="860.9914" x2="4070.7605" y2="860.9914">
				<stop  offset="0" style="stop-color:#2AC8E7"/>
				<stop  offset="1" style="stop-color:#9742CA"/>
			</linearGradient>
			<path class="st10" d="M4091.13,893.3l-17.87,17.87l-98.41-89.14c-2.67-2.43-2.82-6.61-0.31-9.22c2.42-2.53,6.42-2.66,9-0.3
				l21.95,20.05c2.51,2.3,6.38,2.24,8.82-0.12l0.63-0.61c2.47-2.38,6.35-2.42,8.86-0.09L4091.13,893.3z"/>
			<linearGradient id="SVGID_12_" gradientUnits="userSpaceOnUse" x1="3724.3413" y1="903.3699" x2="4074.9016" y2="903.3699">
				<stop  offset="0" style="stop-color:#2AC8E7"/>
				<stop  offset="1" style="stop-color:#9742CA"/>
			</linearGradient>
			<circle class="st11" cx="3770.2" cy="903.37" r="11.96"/>
			<linearGradient id="SVGID_13_" gradientUnits="userSpaceOnUse" x1="3724.3413" y1="1001.7305" x2="4074.9016" y2="1001.7305">
				<stop  offset="0" style="stop-color:#2AC8E7"/>
				<stop  offset="1" style="stop-color:#9742CA"/>
			</linearGradient>
			<path class="st12" d="M3861.59,991.52c-5.64,0-10.21,4.57-10.21,10.21c0,5.64,4.57,10.21,10.21,10.21
				c5.64,0,10.21-4.57,10.21-10.21C3871.8,996.09,3867.23,991.52,3861.59,991.52z"/>
			<linearGradient id="SVGID_14_" gradientUnits="userSpaceOnUse" x1="3724.3413" y1="841.8187" x2="4074.9016" y2="841.8187">
				<stop  offset="0" style="stop-color:#2AC8E7"/>
				<stop  offset="1" style="stop-color:#9742CA"/>
			</linearGradient>
			<path class="st13" d="M3927.25,841.82c0,5.64,4.57,10.21,10.21,10.21s10.21-4.57,10.21-10.21c0-5.64-4.57-10.21-10.21-10.21
				S3927.25,836.18,3927.25,841.82z"/>
			<linearGradient id="SVGID_15_" gradientUnits="userSpaceOnUse" x1="3724.3413" y1="773.2075" x2="4074.9016" y2="773.2075">
				<stop  offset="0" style="stop-color:#2AC8E7"/>
				<stop  offset="1" style="stop-color:#9742CA"/>
			</linearGradient>
			<path class="st14" d="M3971.59,773.21c0-5.64-4.57-10.21-10.21-10.21c-5.64,0-10.21,4.57-10.21,10.21
				c0,5.64,4.57,10.21,10.21,10.21C3967.02,783.42,3971.59,778.85,3971.59,773.21z"/>
			<linearGradient id="SVGID_16_" gradientUnits="userSpaceOnUse" x1="3724.3413" y1="773.2075" x2="4074.9016" y2="773.2075">
				<stop  offset="0" style="stop-color:#2AC8E7"/>
				<stop  offset="1" style="stop-color:#9742CA"/>
			</linearGradient>
			<path class="st15" d="M4079.51,783.42c5.64,0,10.21-4.57,10.21-10.21c0-5.64-4.57-10.21-10.21-10.21s-10.21,4.57-10.21,10.21
				C4069.3,778.85,4073.87,783.42,4079.51,783.42z"/>
			<linearGradient id="SVGID_17_" gradientUnits="userSpaceOnUse" x1="3724.3413" y1="891.408" x2="4074.9016" y2="891.408">
				<stop  offset="0" style="stop-color:#2AC8E7"/>
				<stop  offset="1" style="stop-color:#9742CA"/>
			</linearGradient>
			<path class="st16" d="M4134.04,878.88c-6.92,0-12.53,5.61-12.53,12.53c0,6.92,5.61,12.53,12.53,12.53s12.53-5.61,12.53-12.53
				C4146.57,884.49,4140.96,878.88,4134.04,878.88z"/>
			<linearGradient id="SVGID_18_" gradientUnits="userSpaceOnUse" x1="3724.3413" y1="743.4259" x2="4074.9016" y2="743.4259">
				<stop  offset="0" style="stop-color:#2AC8E7"/>
				<stop  offset="1" style="stop-color:#9742CA"/>
			</linearGradient>
			<circle class="st17" cx="4102.25" cy="743.43" r="12.53"/>
			<linearGradient id="SVGID_19_" gradientUnits="userSpaceOnUse" x1="3724.3413" y1="986.8392" x2="4074.9016" y2="986.8392">
				<stop  offset="0" style="stop-color:#2AC8E7"/>
				<stop  offset="1" style="stop-color:#9742CA"/>
			</linearGradient>
			<circle class="st18" cx="3818.09" cy="986.84" r="16.64"/>
		</g>
		<linearGradient id="SVGID_20_" gradientUnits="userSpaceOnUse" x1="4307.6523" y1="851.5416" x2="5020.6792" y2="851.5416">
			<stop  offset="0" style="stop-color:#2AC8E7"/>
			<stop  offset="1" style="stop-color:#9742CA"/>
		</linearGradient>
		<path class="st19" d="M4334.7,887.89l-1.95-3.69l-22.8-48.06c-2.02-4.16-4.04-7.8-6.09-10.92c-2.05-3.12-4.21-5.73-6.48-7.84
			c-2.28-2.11-4.71-3.69-7.31-4.73c-2.6-1.04-5.46-1.56-8.58-1.56c-3.25,0-6.17,0.52-8.77,1.56c-2.6,1.04-5.02,2.62-7.26,4.73
			c-2.24,2.11-4.39,4.74-6.43,7.89c-2.05,3.15-4.08,6.84-6.09,11.06l-25.24,52.04c-0.13,0.2-0.2,0.49-0.2,0.88
			c0,0.45,0.23,0.86,0.68,1.22c0.45,0.36,1.04,0.65,1.75,0.88c0.72,0.23,1.51,0.39,2.39,0.49c0.88,0.1,1.77,0.15,2.68,0.15
			c2.08,0,4.08-0.29,5.99-0.88c1.92-0.59,3.17-1.5,3.75-2.73l25.04-52.23c1.49-3.18,3.26-5.54,5.31-7.07
			c2.05-1.52,4.14-2.29,6.29-2.29c2.21,0,4.35,0.8,6.43,2.39c2.08,1.59,3.86,3.95,5.36,7.06l4.66,9.75l0,0v0l2.84,5.94h0.01
			l1.12,2.34h-32.51c-1.24,0-2.16,0.75-2.78,2.24c-0.62,1.5-0.92,3.18-0.92,5.07c0,1.82,0.31,3.49,0.92,5.02
			c0.62,1.53,1.54,2.29,2.78,2.29h32.55c2.21,0,4.32,0.99,6.33,2.97c2.01,1.98,3.77,4.53,5.26,7.65l4.19,8.38
			c0.59,1.23,1.83,2.14,3.75,2.73c1.92,0.58,3.91,0.88,5.99,0.88c0.84,0,1.72-0.05,2.63-0.15c0.91-0.1,1.72-0.26,2.44-0.49
			c0.71-0.23,1.3-0.52,1.75-0.88c0.45-0.36,0.68-0.76,0.68-1.22C4334.9,888.38,4334.83,888.09,4334.7,887.89z"/>
		<linearGradient id="SVGID_21_" gradientUnits="userSpaceOnUse" x1="4307.6523" y1="851.5416" x2="5020.6792" y2="851.5416">
			<stop  offset="0" style="stop-color:#2AC8E7"/>
			<stop  offset="1" style="stop-color:#9742CA"/>
		</linearGradient>
		<path class="st20" d="M4941.62,887.89l-2.06-3.89l-22.69-47.85c-2.02-4.16-4.04-7.8-6.09-10.92c-2.05-3.12-4.21-5.73-6.48-7.84
			c-2.27-2.11-4.71-3.69-7.31-4.73c-2.6-1.04-5.46-1.56-8.58-1.56c-3.25,0-6.17,0.52-8.77,1.56c-2.6,1.04-5.02,2.62-7.26,4.73
			c-2.24,2.11-4.39,4.74-6.43,7.89c-2.05,3.15-4.08,6.84-6.09,11.06l-25.24,52.04c-0.13,0.2-0.2,0.49-0.2,0.88
			c0,0.45,0.23,0.86,0.68,1.22c0.45,0.36,1.04,0.65,1.75,0.88c0.72,0.23,1.51,0.39,2.39,0.49c0.88,0.1,1.77,0.15,2.68,0.15
			c2.08,0,4.08-0.29,5.99-0.88c1.92-0.59,3.17-1.5,3.75-2.73l25.04-52.23c1.49-3.18,3.26-5.54,5.31-7.07
			c2.05-1.52,4.14-2.29,6.29-2.29c2.21,0,4.35,0.8,6.43,2.39c2.08,1.59,3.86,3.95,5.36,7.06l2.07,4.32l6.46,13.71h-32.4
			c-1.23,0-2.16,0.75-2.78,2.24c-0.62,1.5-0.92,3.18-0.92,5.07c0,1.82,0.31,3.49,0.92,5.02c0.62,1.53,1.54,2.29,2.78,2.29h32.55
			c2.21,0,4.32,0.99,6.33,2.97c2.01,1.98,3.77,4.53,5.26,7.65l2.57,5.14l0,0l0,0l1.62,3.23c0.59,1.23,1.83,2.14,3.75,2.73
			c1.92,0.58,3.91,0.88,5.99,0.88c0.84,0,1.72-0.05,2.63-0.15c0.91-0.1,1.72-0.26,2.44-0.49c0.71-0.23,1.3-0.52,1.75-0.88
			c0.45-0.36,0.68-0.76,0.68-1.22C4941.82,888.38,4941.75,888.09,4941.62,887.89z"/>
		<linearGradient id="SVGID_22_" gradientUnits="userSpaceOnUse" x1="4307.6523" y1="851.2979" x2="5020.6792" y2="851.2979">
			<stop  offset="0" style="stop-color:#2AC8E7"/>
			<stop  offset="1" style="stop-color:#9742CA"/>
		</linearGradient>
		<path class="st21" d="M5054.19,868.18c0.03-3.64,0.76-6.14,2.19-7.48c1.46-1.36,3.62-2.05,6.48-2.05h52.82
			c1.23,0,2.16-0.76,2.78-2.29c0.62-1.53,0.92-3.2,0.92-5.02c0-1.88-0.31-3.57-0.92-5.07c-0.62-1.49-1.54-2.24-2.78-2.24h-52.62
			c-3.36,0-6.29,0.35-8.8,1.03l0.03-10c0-3.64,0.73-6.11,2.19-7.41c1.46-1.3,3.59-1.95,6.38-1.95h52.82c1.23,0,2.16-0.76,2.78-2.29
			c0.62-1.53,0.92-3.2,0.92-5.02c0-1.88-0.31-3.57-0.92-5.07c-0.62-1.49-1.54-2.24-2.78-2.24h-52.62c-4.74,0-8.64,0.68-11.69,2.05
			c-3.05,1.36-5.46,3.2-7.21,5.51c-1.75,2.31-2.96,4.97-3.61,7.99c-0.65,3.02-0.97,6.22-0.97,9.6v11.04v13.12v8.77v0.39v0.65h0.02
			c0.04,3.11,0.35,5.94,0.96,8.46c0.65,2.7,1.85,5,3.61,6.92c1.75,1.92,4.14,3.38,7.16,4.39c3.02,1.01,6.9,1.51,11.65,1.51h52.62
			c1.23,0,2.16-0.75,2.78-2.24c0.62-1.49,0.93-3.18,0.93-5.07c0-1.82-0.31-3.49-0.93-5.02c-0.62-1.53-1.54-2.29-2.78-2.29h-55.94
			c-0.91,0-1.71-0.06-2.39-0.2c-0.68-0.13-1.25-0.4-1.71-0.83c-0.46-0.42-0.8-1.07-1.02-1.95c-0.23-0.88-0.34-2.06-0.34-3.56v-0.13
			L5054.19,868.18z"/>
		<linearGradient id="SVGID_23_" gradientUnits="userSpaceOnUse" x1="4307.6523" y1="851.2979" x2="5020.6792" y2="851.2979">
			<stop  offset="0" style="stop-color:#2AC8E7"/>
			<stop  offset="1" style="stop-color:#9742CA"/>
		</linearGradient>
		<path class="st22" d="M5028.89,813.34c-0.62-1.49-1.54-2.24-2.78-2.24h-31.28c-4.74,0-8.64,0.68-11.69,2.05
			c-2.2,0.98-4.05,2.22-5.58,3.7l0.01-0.03c0,0-0.42-0.43-1.06-0.94c0,0,0,0,0,0c-0.01-0.01-0.02-0.02-0.03-0.02
			c-0.24-0.19-0.51-0.4-0.81-0.6c-1.66-1.2-3.59-2.17-5.83-2.89c-2.63-0.84-5.8-1.27-9.5-1.27h-31.38c-1.23,0-2.16,0.75-2.78,2.24
			c-0.62,1.5-0.93,3.18-0.93,5.07c0,1.82,0.31,3.49,0.93,5.02c0.62,1.53,1.54,2.29,2.78,2.29h31.57c1.99,0,3.62,0.36,4.94,1.05
			c0.98,0.6,3.98,2.85,5.88,8.95l0.01-0.03c0,0.19-0.01,0.37-0.01,0.55v51.65c0,1.23,0.75,2.14,2.24,2.73
			c1.49,0.58,3.18,0.88,5.07,0.88c1.82,0,3.49-0.29,5.02-0.88c1.53-0.59,2.29-1.5,2.29-2.73v-52.43c0-3.77,0.73-6.33,2.19-7.7
			c1.46-1.36,3.62-2.05,6.48-2.05h31.48c1.23,0,2.16-0.76,2.78-2.29c0.62-1.53,0.93-3.2,0.93-5.02
			C5029.82,816.52,5029.51,814.84,5028.89,813.34z"/>
	</g>
	<g>
		<path class="st23" d="M4229.68,928.19v-0.07c0-7.34,5.5-13.35,13.31-13.35c3.98,0,6.6,1.18,8.85,2.91
			c0.48,0.41,0.89,0.96,0.89,1.81c0,1.29-0.96,2.21-2.25,2.21c-0.63,0-1.07-0.18-1.36-0.44c-1.77-1.44-3.65-2.32-6.16-2.32
			c-4.91,0-8.52,4.09-8.52,9.11v0.07c0,5.05,3.58,9.15,8.52,9.15c2.77,0,4.57-0.88,6.45-2.47c0.33-0.3,0.81-0.52,1.36-0.52
			c1.14,0,2.14,0.96,2.14,2.1c0,0.7-0.33,1.22-0.74,1.62c-2.47,2.18-5.2,3.47-9.37,3.47
			C4235.29,941.47,4229.68,935.6,4229.68,928.19z"/>
		<path class="st23" d="M4258.04,917.49c0-1.29,1-2.29,2.29-2.29h9.22c3.25,0,5.79,0.96,7.45,2.58c1.37,1.44,2.14,3.32,2.14,5.57
			v0.07c0,4.17-2.4,6.6-5.86,7.71l4.94,6.23c0.44,0.55,0.74,1.03,0.74,1.73c0,1.29-1.03,2.1-2.18,2.1c-1.03,0-1.66-0.48-2.21-1.18
			l-6.27-8h-5.72v6.93c0,1.29-0.96,2.25-2.25,2.25c-1.29,0-2.29-0.96-2.29-2.25V917.49z M4269.22,928c3.25,0,5.31-1.66,5.31-4.31
			v-0.07c0-2.8-1.95-4.28-5.35-4.28h-6.6V928H4269.22z"/>
		<path class="st23" d="M4286.99,941.02c-1.29,0-2.29-1-2.29-2.29v-21.24c0-1.29,1-2.29,2.29-2.29H4302c1.14,0,2.03,0.89,2.03,2.03
			c0,1.14-0.88,2.03-2.03,2.03h-12.76v6.71h11.1c1.14,0,2.03,0.92,2.03,2.07s-0.89,1.99-2.03,1.99h-11.1v6.93h12.95
			c1.14,0,2.03,0.88,2.03,2.03s-0.88,2.03-2.03,2.03H4286.99z"/>
		<path class="st23" d="M4307.94,938.07l9.59-21.39c0.55-1.14,1.44-1.84,2.73-1.84h0.22c1.29,0,2.14,0.7,2.69,1.84l9.59,21.39
			c0.18,0.33,0.26,0.63,0.26,0.96c0,1.22-0.92,2.18-2.14,2.18c-1.07,0-1.81-0.59-2.21-1.59l-2.1-4.83h-12.54l-2.18,4.98
			c-0.41,0.96-1.11,1.44-2.1,1.44c-1.18,0-2.1-0.92-2.1-2.1C4307.65,938.81,4307.76,938.48,4307.94,938.07z M4324.83,930.77
			l-4.54-10.44l-4.54,10.44H4324.83z"/>
		<path class="st23" d="M4341.32,919.41h-6.27c-1.18,0-2.1-0.96-2.1-2.1c0-1.14,0.92-2.1,2.1-2.1h17.15c1.14,0,2.07,0.96,2.07,2.1
			c0,1.14-0.92,2.1-2.07,2.1h-6.31v19.55c0,1.29-1,2.25-2.29,2.25s-2.29-0.96-2.29-2.25V919.41z"/>
		<path class="st23" d="M4361.16,941.02c-1.29,0-2.29-1-2.29-2.29v-21.24c0-1.29,1-2.29,2.29-2.29h15.01c1.14,0,2.03,0.89,2.03,2.03
			c0,1.14-0.88,2.03-2.03,2.03h-12.76v6.71h11.1c1.14,0,2.03,0.92,2.03,2.07s-0.89,1.99-2.03,1.99h-11.1v6.93h12.95
			c1.14,0,2.03,0.88,2.03,2.03s-0.88,2.03-2.03,2.03H4361.16z"/>
		<path class="st23" d="M4393.06,918.12c-0.11-0.29-0.18-0.59-0.18-0.89c0-1.29,1.03-2.21,2.32-2.21c1.14,0,1.96,0.66,2.25,1.66
			l5.94,17.74l5.83-17.67c0.41-1.07,1.14-1.81,2.29-1.81h0.33c1.14,0,1.95,0.74,2.29,1.81l5.83,17.67l5.94-17.78
			c0.33-0.92,1.07-1.62,2.21-1.62c1.22,0,2.25,0.96,2.25,2.18c0,0.29-0.11,0.66-0.22,0.92l-7.63,21.39
			c-0.41,1.14-1.22,1.88-2.36,1.88h-0.44c-1.14,0-1.92-0.7-2.32-1.88l-5.75-16.85l-5.75,16.85c-0.41,1.18-1.22,1.88-2.36,1.88h-0.44
			c-1.14,0-1.92-0.7-2.36-1.88L4393.06,918.12z"/>
		<path class="st23" d="M4433.12,928.19v-0.07c0-7.23,5.61-13.35,13.54-13.35c7.93,0,13.46,6.01,13.46,13.28v0.07
			c0,7.23-5.61,13.35-13.54,13.35C4438.65,941.47,4433.12,935.45,4433.12,928.19z M4455.36,928.19v-0.07c0-5.02-3.61-9.18-8.78-9.18
			c-5.13,0-8.7,4.09-8.7,9.11v0.07c0,5.02,3.61,9.15,8.78,9.15C4451.78,937.26,4455.36,933.2,4455.36,928.19z"/>
		<path class="st23" d="M4465.61,917.49c0-1.29,1-2.29,2.29-2.29h9.22c3.25,0,5.79,0.96,7.45,2.58c1.37,1.44,2.14,3.32,2.14,5.57
			v0.07c0,4.17-2.4,6.6-5.86,7.71l4.94,6.23c0.44,0.55,0.74,1.03,0.74,1.73c0,1.29-1.03,2.1-2.18,2.1c-1.03,0-1.66-0.48-2.21-1.18
			l-6.27-8h-5.72v6.93c0,1.29-0.96,2.25-2.25,2.25c-1.29,0-2.29-0.96-2.29-2.25V917.49z M4476.79,928c3.25,0,5.31-1.66,5.31-4.31
			v-0.07c0-2.8-1.95-4.28-5.35-4.28h-6.6V928H4476.79z"/>
		<path class="st23" d="M4492.28,917.27c0-1.29,1-2.25,2.29-2.25c1.29,0,2.25,0.96,2.25,2.25v19.62h11.69
			c1.14,0,2.07,0.92,2.07,2.07s-0.92,2.07-2.07,2.07h-13.94c-1.29,0-2.29-1-2.29-2.29V917.27z"/>
		<path class="st23" d="M4515.11,917.49c0-1.29,1-2.29,2.29-2.29h7.34c8.11,0,13.72,5.57,13.72,12.83v0.07
			c0,7.27-5.61,12.91-13.72,12.91h-7.34c-1.29,0-2.29-1-2.29-2.29V917.49z M4524.73,936.89c5.42,0,8.96-3.65,8.96-8.7v-0.07
			c0-5.05-3.54-8.78-8.96-8.78h-5.09v17.55H4524.73z"/>
		<path class="st23" d="M4542.92,938.15c-0.55-0.41-0.88-1-0.88-1.73c0-1.18,0.96-2.1,2.14-2.1c0.63,0,1.03,0.15,1.33,0.41
			c2.18,1.73,4.43,2.66,7.23,2.66s4.57-1.33,4.57-3.25v-0.07c0-1.81-1.03-2.88-5.83-3.95c-5.5-1.29-8.59-2.99-8.59-7.71v-0.07
			c0-4.43,3.69-7.49,8.81-7.49c3.25,0,5.83,0.81,8.19,2.4c0.55,0.3,1,0.92,1,1.81c0,1.18-0.96,2.1-2.14,2.1
			c-0.41,0-0.81-0.11-1.18-0.33c-2.03-1.29-3.87-1.95-5.94-1.95c-2.66,0-4.2,1.33-4.2,3.06v0.07c0,1.99,1.18,2.88,6.16,4.06
			c5.42,1.4,8.26,3.25,8.26,7.56v0.07c0,4.87-3.8,7.71-9.22,7.71C4549.04,941.39,4545.83,940.32,4542.92,938.15z"/>
		<path class="st23" d="M4576.77,938.07l9.59-21.39c0.55-1.14,1.44-1.84,2.73-1.84h0.22c1.29,0,2.14,0.7,2.69,1.84l9.59,21.39
			c0.18,0.33,0.26,0.63,0.26,0.96c0,1.22-0.92,2.18-2.14,2.18c-1.07,0-1.81-0.59-2.21-1.59l-2.1-4.83h-12.54l-2.18,4.98
			c-0.41,0.96-1.11,1.44-2.1,1.44c-1.18,0-2.1-0.92-2.1-2.1C4576.48,938.81,4576.59,938.48,4576.77,938.07z M4593.66,930.77
			l-4.54-10.44l-4.54,10.44H4593.66z"/>
		<path class="st23" d="M4610.15,919.41h-6.27c-1.18,0-2.1-0.96-2.1-2.1c0-1.14,0.92-2.1,2.1-2.1h17.15c1.14,0,2.07,0.96,2.07,2.1
			c0,1.14-0.92,2.1-2.07,2.1h-6.31v19.55c0,1.29-1,2.25-2.29,2.25s-2.29-0.96-2.29-2.25V919.41z"/>
		<path class="st23" d="M4645.11,919.41h-6.27c-1.18,0-2.1-0.96-2.1-2.1c0-1.14,0.92-2.1,2.1-2.1h17.15c1.14,0,2.07,0.96,2.07,2.1
			c0,1.14-0.92,2.1-2.07,2.1h-6.31v19.55c0,1.29-1,2.25-2.29,2.25s-2.29-0.96-2.29-2.25V919.41z"/>
		<path class="st23" d="M4662.67,917.27c0-1.29,1-2.25,2.29-2.25c1.29,0,2.25,0.96,2.25,2.25v8.67h12.32v-8.67
			c0-1.29,0.96-2.25,2.25-2.25c1.29,0,2.29,0.96,2.29,2.25v21.69c0,1.29-1,2.25-2.29,2.25c-1.29,0-2.25-0.96-2.25-2.25v-8.81h-12.32
			v8.81c0,1.29-0.96,2.25-2.25,2.25c-1.29,0-2.29-0.96-2.29-2.25V917.27z"/>
		<path class="st23" d="M4692.99,941.02c-1.29,0-2.29-1-2.29-2.29v-21.24c0-1.29,1-2.29,2.29-2.29H4708c1.14,0,2.03,0.89,2.03,2.03
			c0,1.14-0.88,2.03-2.03,2.03h-12.76v6.71h11.1c1.14,0,2.03,0.92,2.03,2.07s-0.89,1.99-2.03,1.99h-11.1v6.93h12.95
			c1.14,0,2.03,0.88,2.03,2.03s-0.88,2.03-2.03,2.03H4692.99z"/>
		<path class="st23" d="M4725.81,938.15c-0.55-0.41-0.88-1-0.88-1.73c0-1.18,0.96-2.1,2.14-2.1c0.63,0,1.03,0.15,1.33,0.41
			c2.18,1.73,4.43,2.66,7.23,2.66s4.57-1.33,4.57-3.25v-0.07c0-1.81-1.03-2.88-5.83-3.95c-5.5-1.29-8.59-2.99-8.59-7.71v-0.07
			c0-4.43,3.69-7.49,8.81-7.49c3.25,0,5.83,0.81,8.19,2.4c0.55,0.3,1,0.92,1,1.81c0,1.18-0.96,2.1-2.14,2.1
			c-0.41,0-0.81-0.11-1.18-0.33c-2.03-1.29-3.87-1.95-5.94-1.95c-2.66,0-4.2,1.33-4.2,3.06v0.07c0,1.99,1.18,2.88,6.16,4.06
			c5.42,1.4,8.26,3.25,8.26,7.56v0.07c0,4.87-3.8,7.71-9.22,7.71C4731.93,941.39,4728.73,940.32,4725.81,938.15z"/>
		<path class="st23" d="M4750.08,917.49c0-1.29,1-2.29,2.29-2.29h7.89c6.05,0,9.81,3.43,9.81,8.63v0.07c0,5.75-4.61,8.81-10.33,8.81
			h-5.13v6.23c0,1.29-0.96,2.25-2.25,2.25c-1.29,0-2.29-0.96-2.29-2.25V917.49z M4759.89,928.63c3.43,0,5.57-1.92,5.57-4.61v-0.07
			c0-3.06-2.18-4.61-5.57-4.61h-5.27v9.29H4759.89z"/>
		<path class="st23" d="M4777,941.02c-1.29,0-2.29-1-2.29-2.29v-21.24c0-1.29,1-2.29,2.29-2.29h15.01c1.14,0,2.03,0.89,2.03,2.03
			c0,1.14-0.88,2.03-2.03,2.03h-12.76v6.71h11.1c1.14,0,2.03,0.92,2.03,2.07s-0.89,1.99-2.03,1.99h-11.1v6.93h12.95
			c1.14,0,2.03,0.88,2.03,2.03s-0.88,2.03-2.03,2.03H4777z"/>
		<path class="st23" d="M4801.71,941.02c-1.29,0-2.29-1-2.29-2.29v-21.24c0-1.29,1-2.29,2.29-2.29h15.01c1.14,0,2.03,0.89,2.03,2.03
			c0,1.14-0.88,2.03-2.03,2.03h-12.76v6.71h11.1c1.14,0,2.03,0.92,2.03,2.07s-0.89,1.99-2.03,1.99h-11.1v6.93h12.95
			c1.14,0,2.03,0.88,2.03,2.03s-0.88,2.03-2.03,2.03H4801.71z"/>
		<path class="st23" d="M4824.14,917.49c0-1.29,1-2.29,2.29-2.29h7.34c8.11,0,13.72,5.57,13.72,12.83v0.07
			c0,7.27-5.61,12.91-13.72,12.91h-7.34c-1.29,0-2.29-1-2.29-2.29V917.49z M4833.77,936.89c5.42,0,8.96-3.65,8.96-8.7v-0.07
			c0-5.05-3.54-8.78-8.96-8.78h-5.09v17.55H4833.77z"/>
		<path class="st23" d="M4862.9,928.19v-0.07c0-7.23,5.61-13.35,13.54-13.35c7.93,0,13.46,6.01,13.46,13.28v0.07
			c0,7.23-5.61,13.35-13.54,13.35C4868.43,941.47,4862.9,935.45,4862.9,928.19z M4885.14,928.19v-0.07c0-5.02-3.61-9.18-8.78-9.18
			c-5.13,0-8.7,4.09-8.7,9.11v0.07c0,5.02,3.61,9.15,8.78,9.15C4881.56,937.26,4885.14,933.2,4885.14,928.19z"/>
		<path class="st23" d="M4895.39,917.49c0-1.29,1-2.29,2.29-2.29h15.05c1.14,0,2.07,0.92,2.07,2.07c0,1.14-0.92,2.07-2.07,2.07
			h-12.8v7.04h11.14c1.14,0,2.07,0.92,2.07,2.07s-0.92,2.07-2.07,2.07h-11.14v8.45c0,1.29-0.96,2.25-2.25,2.25
			c-1.29,0-2.29-0.96-2.29-2.25V917.49z"/>
		<path class="st23" d="M4937,919.41h-6.27c-1.18,0-2.1-0.96-2.1-2.1c0-1.14,0.92-2.1,2.1-2.1h17.15c1.14,0,2.07,0.96,2.07,2.1
			c0,1.14-0.92,2.1-2.07,2.1h-6.31v19.55c0,1.29-1,2.25-2.29,2.25s-2.29-0.96-2.29-2.25V919.41z"/>
		<path class="st23" d="M4954.55,917.27c0-1.29,1-2.25,2.29-2.25c1.29,0,2.25,0.96,2.25,2.25v8.67h12.32v-8.67
			c0-1.29,0.96-2.25,2.25-2.25c1.29,0,2.29,0.96,2.29,2.25v21.69c0,1.29-1,2.25-2.29,2.25c-1.29,0-2.25-0.96-2.25-2.25v-8.81h-12.32
			v8.81c0,1.29-0.96,2.25-2.25,2.25c-1.29,0-2.29-0.96-2.29-2.25V917.27z"/>
		<path class="st23" d="M4981.44,928.19v-0.07c0-7.23,5.61-13.35,13.54-13.35c7.93,0,13.46,6.01,13.46,13.28v0.07
			c0,7.23-5.61,13.35-13.54,13.35C4986.97,941.47,4981.44,935.45,4981.44,928.19z M5003.68,928.19v-0.07c0-5.02-3.61-9.18-8.78-9.18
			c-5.13,0-8.7,4.09-8.7,9.11v0.07c0,5.02,3.61,9.15,8.78,9.15C5000.1,937.26,5003.68,933.2,5003.68,928.19z"/>
		<path class="st23" d="M5013.52,930.07v-12.8c0-1.29,1-2.25,2.29-2.25s2.25,0.96,2.25,2.25v12.61c0,4.83,2.43,7.34,6.53,7.34
			c4.02,0,6.49-2.4,6.49-7.15v-12.8c0-1.29,1-2.25,2.29-2.25c1.29,0,2.25,0.96,2.25,2.25v12.58c0,7.71-4.35,11.58-11.1,11.58
			C5017.84,941.43,5013.52,937.56,5013.52,930.07z"/>
		<path class="st23" d="M5040.71,928.19v-0.07c0-7.23,5.5-13.35,13.31-13.35c3.87,0,6.45,0.88,8.81,2.62
			c0.44,0.33,0.92,0.96,0.92,1.84c0,1.22-0.96,2.25-2.25,2.25c-0.59,0-1-0.26-1.4-0.52c-1.66-1.22-3.47-2.03-6.27-2.03
			c-4.72,0-8.37,4.2-8.37,9.11v0.07c0,5.31,3.5,9.22,8.78,9.22c2.47,0,4.65-0.77,6.23-1.95v-4.83h-5.09c-1.14,0-2.03-0.81-2.03-1.96
			s0.88-1.99,2.03-1.99h7.19c1.29,0,2.29,1,2.29,2.29v6.9c0,1.25-0.52,2.21-1.59,2.88c-2.21,1.48-5.31,2.8-9.18,2.8
			C5046.02,941.47,5040.71,935.71,5040.71,928.19z"/>
		<path class="st23" d="M5070.77,917.27c0-1.29,1-2.25,2.29-2.25c1.29,0,2.25,0.96,2.25,2.25v8.67h12.32v-8.67
			c0-1.29,0.96-2.25,2.25-2.25c1.29,0,2.29,0.96,2.29,2.25v21.69c0,1.29-1,2.25-2.29,2.25c-1.29,0-2.25-0.96-2.25-2.25v-8.81h-12.32
			v8.81c0,1.29-0.96,2.25-2.25,2.25c-1.29,0-2.29-0.96-2.29-2.25V917.27z"/>
		<path class="st23" d="M5105.14,919.41h-6.27c-1.18,0-2.1-0.96-2.1-2.1c0-1.14,0.92-2.1,2.1-2.1h17.15c1.14,0,2.07,0.96,2.07,2.1
			c0,1.14-0.92,2.1-2.07,2.1h-6.31v19.55c0,1.29-1,2.25-2.29,2.25s-2.29-0.96-2.29-2.25V919.41z"/>
	</g>
</g>
<g>
	<g>
		<g>
			<linearGradient id="SVGID_24_" gradientUnits="userSpaceOnUse" x1="1060.853" y1="1043.7096" x2="1773.8798" y2="1043.7096">
				<stop  offset="0" style="stop-color:#2AC8E7"/>
				<stop  offset="1" style="stop-color:#9742CA"/>
			</linearGradient>
			<path class="st24" d="M1097.25,1007.12c0-1.23,0.75-2.14,2.24-2.73c1.49-0.58,3.18-0.88,5.07-0.88c1.82,0,3.49,0.29,5.02,0.88
				c1.53,0.59,2.29,1.5,2.29,2.73v73.09c0,1.23-0.76,2.16-2.29,2.78c-1.53,0.62-3.2,0.92-5.02,0.92c-1.89,0-3.57-0.31-5.07-0.92
				c-1.5-0.62-2.24-1.54-2.24-2.78V1007.12z"/>
			<linearGradient id="SVGID_25_" gradientUnits="userSpaceOnUse" x1="1060.853" y1="1043.7096" x2="1773.8798" y2="1043.7096">
				<stop  offset="0" style="stop-color:#2AC8E7"/>
				<stop  offset="1" style="stop-color:#9742CA"/>
			</linearGradient>
			<path class="st25" d="M1145.1,1083.91c-4.74,0-8.64-0.68-11.69-2.05c-3.05-1.36-5.46-3.2-7.21-5.51
				c-1.75-2.31-2.96-4.97-3.61-7.99c-0.65-3.02-0.97-6.22-0.97-9.6v-51.65c0-1.23,0.75-2.14,2.24-2.73
				c1.49-0.58,3.18-0.88,5.07-0.88c1.82,0,3.49,0.29,5.02,0.88c1.53,0.59,2.29,1.5,2.29,2.73v52.43c0,3.77,0.73,6.34,2.19,7.7
				c1.46,1.36,3.62,2.05,6.48,2.05h50.67c1.23,0,2.16,0.76,2.78,2.29c0.62,1.53,0.93,3.2,0.93,5.02c0,1.88-0.31,3.57-0.93,5.07
				c-0.62,1.49-1.54,2.24-2.78,2.24H1145.1z"/>
			<linearGradient id="SVGID_26_" gradientUnits="userSpaceOnUse" x1="1060.853" y1="1044.4404" x2="1773.8798" y2="1044.4404">
				<stop  offset="0" style="stop-color:#2AC8E7"/>
				<stop  offset="1" style="stop-color:#9742CA"/>
			</linearGradient>
			<path class="st26" d="M1294.59,1043.86c0,7.41-1.04,13.74-3.12,19c-2.08,5.26-5.12,9.55-9.11,12.86
				c-3.99,3.31-8.9,5.75-14.72,7.31c-5.82,1.56-12.46,2.34-19.93,2.34c-7.47,0-14.02-0.78-19.64-2.34c-5.62-1.56-10.33-4-14.13-7.31
				c-3.8-3.31-6.66-7.6-8.57-12.86c-1.92-5.26-2.88-11.6-2.88-19v-36.74c0-1.23,0.75-2.14,2.24-2.73c1.49-0.58,3.18-0.88,5.07-0.88
				c1.82,0,3.49,0.29,5.02,0.88c1.53,0.59,2.29,1.5,2.29,2.73v36.74c0,4.81,0.7,8.92,2.1,12.33c1.4,3.41,3.41,6.22,6.04,8.43
				c2.63,2.21,5.83,3.83,9.6,4.87c3.77,1.04,8.06,1.56,12.86,1.56c4.74,0,9.09-0.52,13.06-1.56c3.96-1.04,7.37-2.66,10.23-4.87
				c2.86-2.21,5.07-5.02,6.63-8.43c1.56-3.41,2.34-7.52,2.34-12.33v-36.74c0-1.23,0.75-2.14,2.24-2.73
				c1.49-0.58,3.18-0.88,5.07-0.88c1.82,0,3.49,0.29,5.02,0.88c1.53,0.59,2.29,1.5,2.29,2.73V1043.86z"/>
			<linearGradient id="SVGID_27_" gradientUnits="userSpaceOnUse" x1="1060.853" y1="1042.6866" x2="1773.8798" y2="1042.6866">
				<stop  offset="0" style="stop-color:#2AC8E7"/>
				<stop  offset="1" style="stop-color:#9742CA"/>
			</linearGradient>
			<path class="st27" d="M1360.47,1028.65c-1.5-3.12-3.28-5.47-5.36-7.06c-2.08-1.59-4.22-2.39-6.43-2.39
				c-2.14,0-4.24,0.76-6.29,2.29c-2.05,1.53-3.82,3.88-5.31,7.07l-23.88,49.7c-0.59,1.23-1.84,2.14-3.75,2.73
				c-1.92,0.59-3.91,0.88-5.99,0.88c-0.91,0-1.8-0.05-2.68-0.15c-0.88-0.1-1.67-0.26-2.39-0.49c-0.72-0.23-1.3-0.52-1.75-0.88
				c-0.46-0.36-0.68-0.76-0.68-1.22c0-0.39,0.06-0.68,0.2-0.88l24.07-49.51c4.09-8.44,8.67-14.76,13.74-18.95
				c5.07-4.19,10-6.29,14.81-6.29c4.87,0,9.81,2.08,14.81,6.24c5,4.16,9.55,10.43,13.64,18.81l24.17,49.7
				c0.13,0.2,0.2,0.49,0.2,0.88c0,0.45-0.23,0.86-0.68,1.22c-0.46,0.36-1.04,0.65-1.75,0.88c-0.72,0.23-1.53,0.39-2.44,0.49
				c-0.91,0.1-1.79,0.15-2.63,0.15c-2.08,0-4.08-0.29-5.99-0.88c-1.92-0.58-3.17-1.49-3.75-2.73L1360.47,1028.65z M1359.11,1032.75
				l8.48,17.44l-13.55,28.07c-0.58,1.23-1.84,2.14-3.75,2.73c-1.92,0.59-3.91,0.88-5.99,0.88c-0.91,0-1.8-0.05-2.68-0.15
				c-0.88-0.1-1.67-0.26-2.39-0.49c-0.72-0.23-1.3-0.52-1.75-0.88c-0.46-0.36-0.68-0.76-0.68-1.22c0-0.39,0.06-0.68,0.19-0.88
				L1359.11,1032.75z M1401.3,1028.65c-1.49-3.12-3.28-5.47-5.36-7.06c-2.08-1.59-4.22-2.39-6.43-2.39c-1.82,0-3.6,0.55-5.36,1.66
				c-1.75,1.11-3.38,2.83-4.87,5.16c-2.47-4.81-5.26-8.93-8.38-12.38c3.05-3.44,6.17-5.99,9.36-7.65c3.18-1.66,6.3-2.48,9.36-2.48
				c4.87,0,9.81,2.08,14.81,6.24c5,4.16,9.55,10.43,13.64,18.81l24.17,49.7c0.13,0.2,0.2,0.49,0.2,0.88c0,0.45-0.23,0.86-0.68,1.22
				c-0.45,0.36-1.04,0.65-1.75,0.88c-0.72,0.23-1.53,0.39-2.44,0.49c-0.91,0.1-1.79,0.15-2.63,0.15c-2.08,0-4.08-0.29-5.99-0.88
				c-1.92-0.58-3.17-1.49-3.75-2.73L1401.3,1028.65z"/>
			<linearGradient id="SVGID_28_" gradientUnits="userSpaceOnUse" x1="1060.853" y1="1043.7096" x2="1773.8798" y2="1043.7096">
				<stop  offset="0" style="stop-color:#2AC8E7"/>
				<stop  offset="1" style="stop-color:#9742CA"/>
			</linearGradient>
			<path class="st28" d="M1452.17,1007.12c0-1.23,0.75-2.14,2.24-2.73c1.49-0.58,3.18-0.88,5.07-0.88c1.82,0,3.49,0.29,5.02,0.88
				c1.53,0.59,2.29,1.5,2.29,2.73v73.09c0,1.23-0.76,2.16-2.29,2.78c-1.53,0.62-3.2,0.92-5.02,0.92c-1.89,0-3.57-0.31-5.07-0.92
				c-1.5-0.62-2.24-1.54-2.24-2.78V1007.12z"/>
			<linearGradient id="SVGID_29_" gradientUnits="userSpaceOnUse" x1="1060.853" y1="1043.7096" x2="1773.8798" y2="1043.7096">
				<stop  offset="0" style="stop-color:#2AC8E7"/>
				<stop  offset="1" style="stop-color:#9742CA"/>
			</linearGradient>
			<path class="st29" d="M1560.15,1083.91c-3.18,0-6.03-0.49-8.53-1.46c-2.5-0.97-4.92-2.5-7.26-4.58
				c-2.34-2.08-4.73-4.74-7.16-7.99c-2.44-3.25-5.21-7.18-8.33-11.79l-19.39-28.36c-2.4-3.51-4.55-6.04-6.43-7.6
				c-1.88-1.56-3.74-2.34-5.55-2.34c-1.43,0-2.84,0.72-4.24,2.14c-1.4,1.43-2.1,3.74-2.1,6.92v51.36c0,1.23-0.76,2.16-2.29,2.78
				c-1.53,0.62-3.2,0.92-5.02,0.92c-1.89,0-3.57-0.31-5.07-0.92c-1.5-0.62-2.24-1.54-2.24-2.78v-51.26c0-4.74,0.63-8.74,1.9-11.99
				c1.27-3.25,2.86-5.88,4.78-7.89c1.92-2.01,3.98-3.44,6.19-4.29c2.21-0.84,4.25-1.27,6.14-1.27c3.18,0,5.99,0.47,8.43,1.41
				c2.44,0.94,4.81,2.44,7.11,4.48c2.31,2.05,4.68,4.71,7.11,7.99c2.44,3.28,5.28,7.26,8.53,11.94l19.39,28.36
				c2.6,3.83,4.79,6.45,6.58,7.84c1.79,1.4,3.59,2.1,5.41,2.1c0.71,0,1.44-0.16,2.19-0.49c0.75-0.32,1.43-0.86,2.05-1.61
				c0.62-0.75,1.12-1.69,1.51-2.83c0.39-1.14,0.58-2.52,0.58-4.14v-51.36c0-1.23,0.76-2.16,2.29-2.78c1.52-0.62,3.2-0.93,5.02-0.93
				c1.88,0,3.57,0.31,5.07,0.93c1.49,0.62,2.24,1.54,2.24,2.78v51.26c0,4.81-0.63,8.82-1.9,12.04c-1.27,3.22-2.84,5.83-4.73,7.84
				c-1.88,2.01-3.93,3.44-6.14,4.29C1564.08,1083.48,1562.03,1083.91,1560.15,1083.91z"/>
		</g>
		<g>
			<linearGradient id="SVGID_30_" gradientUnits="userSpaceOnUse" x1="1237.5527" y1="766.8309" x2="1572.6874" y2="766.8309">
				<stop  offset="0" style="stop-color:#2AC8E7"/>
				<stop  offset="1" style="stop-color:#9742CA"/>
			</linearGradient>
			<path class="st30" d="M1452.46,709.04l-101.17,92.4c-5.81,5.31-9.13,12.82-9.13,20.69v13.96l-22.33-22.49
				c-5.53-5.57-5.51-14.57,0.05-20.11l11.74-11.7l0.06,0.06l40.24-39.88c1.78-1.76,4.1-2.64,6.43-2.64c2.36,0,4.72,0.91,6.51,2.72
				c3.55,3.62,9.38,3.64,12.96,0.05l41.78-41.86c3.74-3.75,9.89-3.53,13.36,0.48C1455.06,703.18,1454.84,706.86,1452.46,709.04z"/>
			<linearGradient id="SVGID_31_" gradientUnits="userSpaceOnUse" x1="1227.5743" y1="814.0967" x2="1578.1345" y2="814.0967">
				<stop  offset="0" style="stop-color:#2AC8E7"/>
				<stop  offset="1" style="stop-color:#9742CA"/>
			</linearGradient>
			<path class="st31" d="M1427.9,764.85L1427.9,764.85c-3.22-3.22-8.37-3.46-11.88-0.56l-53.88,49.92
				c-4.8,4.45-7.53,10.7-7.53,17.25v17.86l16.61,16.61v-26.08c0-6.57,2.75-12.84,7.58-17.3l48.42-44.61
				C1431.29,774.64,1431.6,768.55,1427.9,764.85z"/>
			<linearGradient id="SVGID_32_" gradientUnits="userSpaceOnUse" x1="1227.5743" y1="879.9717" x2="1578.1345" y2="879.9717">
				<stop  offset="0" style="stop-color:#2AC8E7"/>
				<stop  offset="1" style="stop-color:#9742CA"/>
			</linearGradient>
			<polygon class="st32" points="1451.63,901.79 1387.08,837.25 1385.29,838.72 1385.29,880 1451.63,946.34 1563.66,834.32 
				1539.82,813.6 			"/>
			<linearGradient id="SVGID_33_" gradientUnits="userSpaceOnUse" x1="1222.6005" y1="693.6492" x2="1598.028" y2="693.6492">
				<stop  offset="0" style="stop-color:#2AC8E7"/>
				<stop  offset="1" style="stop-color:#9742CA"/>
			</linearGradient>
			<path class="st33" d="M1297.69,748.07v44.34l0.01,0.01l77.22-77.03l29.05-29.05c2.41,4.36,7.05,7.32,12.38,7.32
				c7.8,0,14.13-6.33,14.13-14.13c0-5.33-2.96-9.97-7.32-12.38l28.46-28.46l69.56,69.85c-0.03,0-0.06,0-0.1,0
				c-6.92,0-12.53,5.61-12.53,12.53s5.61,12.53,12.53,12.53c6.92,0,12.53-5.61,12.53-12.53c0-0.01,0-0.03,0-0.04l71.86,72.17
				l21.83-22.63l-175.68-176.43L1297.69,748.07z"/>
			<linearGradient id="SVGID_34_" gradientUnits="userSpaceOnUse" x1="1237.6509" y1="771.223" x2="1573.9934" y2="771.223">
				<stop  offset="0" style="stop-color:#2AC8E7"/>
				<stop  offset="1" style="stop-color:#9742CA"/>
			</linearGradient>
			<path class="st34" d="M1594.36,803.53l-17.87,17.87l-98.41-89.14c-2.67-2.43-2.82-6.61-0.31-9.22c2.42-2.53,6.42-2.66,9-0.3
				l21.95,20.05c2.51,2.3,6.38,2.24,8.82-0.12l0.63-0.61c2.47-2.38,6.35-2.42,8.86-0.09L1594.36,803.53z"/>
			<linearGradient id="SVGID_35_" gradientUnits="userSpaceOnUse" x1="1227.5743" y1="813.6015" x2="1578.1345" y2="813.6015">
				<stop  offset="0" style="stop-color:#2AC8E7"/>
				<stop  offset="1" style="stop-color:#9742CA"/>
			</linearGradient>
			<circle class="st35" cx="1273.44" cy="813.6" r="11.96"/>
			<linearGradient id="SVGID_36_" gradientUnits="userSpaceOnUse" x1="1227.5743" y1="911.9621" x2="1578.1345" y2="911.9621">
				<stop  offset="0" style="stop-color:#2AC8E7"/>
				<stop  offset="1" style="stop-color:#9742CA"/>
			</linearGradient>
			<path class="st36" d="M1364.82,901.75c-5.64,0-10.21,4.57-10.21,10.21c0,5.64,4.57,10.21,10.21,10.21
				c5.64,0,10.21-4.57,10.21-10.21C1375.03,906.32,1370.46,901.75,1364.82,901.75z"/>
			<linearGradient id="SVGID_37_" gradientUnits="userSpaceOnUse" x1="1227.5743" y1="752.0503" x2="1578.1345" y2="752.0503">
				<stop  offset="0" style="stop-color:#2AC8E7"/>
				<stop  offset="1" style="stop-color:#9742CA"/>
			</linearGradient>
			<path class="st37" d="M1430.49,752.05c0,5.64,4.57,10.21,10.21,10.21c5.64,0,10.21-4.57,10.21-10.21s-4.57-10.21-10.21-10.21
				C1435.06,741.84,1430.49,746.41,1430.49,752.05z"/>
			<linearGradient id="SVGID_38_" gradientUnits="userSpaceOnUse" x1="1227.5743" y1="683.4391" x2="1578.1345" y2="683.4391">
				<stop  offset="0" style="stop-color:#2AC8E7"/>
				<stop  offset="1" style="stop-color:#9742CA"/>
			</linearGradient>
			<path class="st38" d="M1474.82,683.44c0-5.64-4.57-10.21-10.21-10.21c-5.64,0-10.21,4.57-10.21,10.21
				c0,5.64,4.57,10.21,10.21,10.21C1470.25,693.65,1474.82,689.08,1474.82,683.44z"/>
			<linearGradient id="SVGID_39_" gradientUnits="userSpaceOnUse" x1="1227.5743" y1="683.4391" x2="1578.1345" y2="683.4391">
				<stop  offset="0" style="stop-color:#2AC8E7"/>
				<stop  offset="1" style="stop-color:#9742CA"/>
			</linearGradient>
			<path class="st39" d="M1582.74,693.65c5.64,0,10.21-4.57,10.21-10.21c0-5.64-4.57-10.21-10.21-10.21
				c-5.64,0-10.21,4.57-10.21,10.21C1572.53,689.08,1577.1,693.65,1582.74,693.65z"/>
			<linearGradient id="SVGID_40_" gradientUnits="userSpaceOnUse" x1="1227.5743" y1="801.6396" x2="1578.1345" y2="801.6396">
				<stop  offset="0" style="stop-color:#2AC8E7"/>
				<stop  offset="1" style="stop-color:#9742CA"/>
			</linearGradient>
			<path class="st40" d="M1637.28,789.11c-6.92,0-12.53,5.61-12.53,12.53c0,6.92,5.61,12.53,12.53,12.53
				c6.92,0,12.53-5.61,12.53-12.53C1649.8,794.72,1644.2,789.11,1637.28,789.11z"/>
			<linearGradient id="SVGID_41_" gradientUnits="userSpaceOnUse" x1="1227.5743" y1="653.6575" x2="1578.1345" y2="653.6575">
				<stop  offset="0" style="stop-color:#2AC8E7"/>
				<stop  offset="1" style="stop-color:#9742CA"/>
			</linearGradient>
			<circle class="st41" cx="1605.48" cy="653.66" r="12.53"/>
			<linearGradient id="SVGID_42_" gradientUnits="userSpaceOnUse" x1="1227.5743" y1="897.0708" x2="1578.1345" y2="897.0708">
				<stop  offset="0" style="stop-color:#2AC8E7"/>
				<stop  offset="1" style="stop-color:#9742CA"/>
			</linearGradient>
			<circle class="st42" cx="1321.32" cy="897.07" r="16.64"/>
		</g>
		<linearGradient id="SVGID_43_" gradientUnits="userSpaceOnUse" x1="1060.853" y1="1043.9531" x2="1773.8798" y2="1043.9531">
			<stop  offset="0" style="stop-color:#2AC8E7"/>
			<stop  offset="1" style="stop-color:#9742CA"/>
		</linearGradient>
		<path class="st43" d="M1087.9,1080.3l-1.95-3.69l-22.8-48.06c-2.02-4.16-4.04-7.8-6.09-10.92c-2.05-3.12-4.21-5.73-6.48-7.84
			c-2.27-2.11-4.71-3.69-7.31-4.73c-2.6-1.04-5.46-1.56-8.58-1.56c-3.25,0-6.17,0.52-8.77,1.56c-2.6,1.04-5.02,2.62-7.26,4.73
			c-2.24,2.11-4.39,4.74-6.43,7.89c-2.05,3.15-4.08,6.84-6.09,11.06l-25.24,52.04c-0.13,0.2-0.2,0.49-0.2,0.88
			c0,0.45,0.23,0.86,0.68,1.22c0.45,0.36,1.04,0.65,1.75,0.88c0.72,0.23,1.51,0.39,2.39,0.49c0.88,0.1,1.77,0.15,2.68,0.15
			c2.08,0,4.08-0.29,5.99-0.88c1.92-0.59,3.17-1.5,3.75-2.73l25.05-52.23c1.49-3.18,3.26-5.54,5.31-7.07
			c2.05-1.52,4.14-2.29,6.29-2.29c2.21,0,4.35,0.8,6.43,2.39c2.08,1.59,3.86,3.95,5.36,7.06l4.66,9.75l0,0v0l2.84,5.94h0.01
			l1.12,2.34h-32.51c-1.24,0-2.16,0.75-2.78,2.24c-0.62,1.5-0.92,3.18-0.92,5.07c0,1.82,0.31,3.49,0.92,5.02
			c0.62,1.53,1.54,2.29,2.78,2.29h32.55c2.21,0,4.32,0.99,6.33,2.97c2.01,1.98,3.77,4.53,5.26,7.65l4.19,8.38
			c0.59,1.23,1.83,2.14,3.75,2.73c1.91,0.58,3.91,0.88,5.99,0.88c0.84,0,1.72-0.05,2.63-0.15c0.91-0.1,1.72-0.26,2.44-0.49
			c0.71-0.23,1.3-0.52,1.75-0.88c0.45-0.36,0.68-0.76,0.68-1.22C1088.1,1080.79,1088.03,1080.5,1087.9,1080.3z"/>
		<linearGradient id="SVGID_44_" gradientUnits="userSpaceOnUse" x1="1060.853" y1="1043.9531" x2="1773.8798" y2="1043.9531">
			<stop  offset="0" style="stop-color:#2AC8E7"/>
			<stop  offset="1" style="stop-color:#9742CA"/>
		</linearGradient>
		<path class="st44" d="M1694.83,1080.3l-2.06-3.89l-22.69-47.85c-2.02-4.16-4.04-7.8-6.09-10.92c-2.05-3.12-4.21-5.73-6.48-7.84
			c-2.27-2.11-4.71-3.69-7.31-4.73c-2.6-1.04-5.46-1.56-8.58-1.56c-3.25,0-6.17,0.52-8.77,1.56c-2.6,1.04-5.02,2.62-7.26,4.73
			c-2.24,2.11-4.39,4.74-6.43,7.89c-2.05,3.15-4.08,6.84-6.09,11.06l-25.24,52.04c-0.13,0.2-0.2,0.49-0.2,0.88
			c0,0.45,0.23,0.86,0.68,1.22c0.45,0.36,1.04,0.65,1.75,0.88c0.72,0.23,1.51,0.39,2.39,0.49c0.88,0.1,1.77,0.15,2.68,0.15
			c2.08,0,4.08-0.29,5.99-0.88c1.92-0.59,3.17-1.5,3.75-2.73l25.05-52.23c1.49-3.18,3.26-5.54,5.31-7.07
			c2.05-1.52,4.14-2.29,6.29-2.29c2.21,0,4.35,0.8,6.43,2.39c2.08,1.59,3.86,3.95,5.36,7.06l2.07,4.32l6.46,13.71h-32.4
			c-1.23,0-2.16,0.75-2.78,2.24c-0.62,1.5-0.92,3.18-0.92,5.07c0,1.82,0.31,3.49,0.92,5.02c0.62,1.53,1.54,2.29,2.78,2.29h32.55
			c2.21,0,4.32,0.99,6.33,2.97c2.01,1.98,3.77,4.53,5.26,7.65l2.57,5.14l0,0l0,0l1.62,3.23c0.59,1.23,1.84,2.14,3.75,2.73
			c1.92,0.58,3.91,0.88,5.99,0.88c0.84,0,1.72-0.05,2.63-0.15c0.91-0.1,1.72-0.26,2.44-0.49c0.71-0.23,1.3-0.52,1.75-0.88
			c0.45-0.36,0.68-0.76,0.68-1.22C1695.02,1080.79,1694.95,1080.5,1694.83,1080.3z"/>
		<linearGradient id="SVGID_45_" gradientUnits="userSpaceOnUse" x1="1060.853" y1="1043.7096" x2="1773.8798" y2="1043.7096">
			<stop  offset="0" style="stop-color:#2AC8E7"/>
			<stop  offset="1" style="stop-color:#9742CA"/>
		</linearGradient>
		<path class="st45" d="M1807.39,1060.59c0.03-3.64,0.76-6.14,2.19-7.48c1.46-1.36,3.62-2.05,6.48-2.05h52.82
			c1.23,0,2.16-0.76,2.78-2.29c0.62-1.53,0.92-3.2,0.92-5.02c0-1.88-0.31-3.57-0.92-5.07c-0.62-1.49-1.54-2.24-2.78-2.24h-52.62
			c-3.36,0-6.29,0.35-8.8,1.03l0.03-10c0-3.64,0.73-6.11,2.19-7.41c1.46-1.3,3.59-1.95,6.38-1.95h52.82c1.23,0,2.16-0.76,2.78-2.29
			c0.62-1.53,0.92-3.2,0.92-5.02c0-1.88-0.31-3.57-0.92-5.07c-0.62-1.49-1.54-2.24-2.78-2.24h-52.62c-4.74,0-8.64,0.68-11.69,2.05
			c-3.05,1.36-5.46,3.2-7.21,5.51c-1.75,2.31-2.96,4.97-3.61,7.99c-0.65,3.02-0.97,6.22-0.97,9.6v11.04v13.12v8.77v0.39v0.65h0.02
			c0.04,3.11,0.35,5.94,0.96,8.46c0.65,2.7,1.85,5,3.61,6.92c1.76,1.92,4.14,3.38,7.16,4.39c3.02,1.01,6.9,1.51,11.65,1.51h52.62
			c1.23,0,2.16-0.75,2.78-2.24c0.62-1.49,0.93-3.18,0.93-5.07c0-1.82-0.31-3.49-0.93-5.02c-0.62-1.53-1.54-2.29-2.78-2.29h-55.94
			c-0.91,0-1.71-0.06-2.39-0.2c-0.68-0.13-1.25-0.4-1.71-0.83c-0.46-0.42-0.8-1.07-1.02-1.95c-0.23-0.88-0.34-2.06-0.34-3.56v-0.13
			L1807.39,1060.59z"/>
		<linearGradient id="SVGID_46_" gradientUnits="userSpaceOnUse" x1="1060.853" y1="1043.7096" x2="1773.8798" y2="1043.7096">
			<stop  offset="0" style="stop-color:#2AC8E7"/>
			<stop  offset="1" style="stop-color:#9742CA"/>
		</linearGradient>
		<path class="st46" d="M1782.09,1005.75c-0.62-1.49-1.54-2.24-2.78-2.24h-31.28c-4.74,0-8.64,0.68-11.69,2.05
			c-2.2,0.98-4.05,2.22-5.58,3.7l0.01-0.03c0,0-0.42-0.43-1.06-0.94c0,0,0,0,0,0c-0.01-0.01-0.02-0.02-0.03-0.02
			c-0.24-0.19-0.51-0.4-0.81-0.6c-1.66-1.2-3.59-2.17-5.83-2.89c-2.63-0.84-5.8-1.27-9.5-1.27h-31.38c-1.24,0-2.16,0.75-2.78,2.24
			c-0.62,1.5-0.93,3.18-0.93,5.07c0,1.82,0.31,3.49,0.93,5.02c0.62,1.53,1.54,2.29,2.78,2.29h31.57c1.99,0,3.62,0.36,4.94,1.05
			c0.98,0.6,3.98,2.85,5.88,8.95l0.01-0.03c0,0.19-0.01,0.37-0.01,0.55v51.65c0,1.23,0.75,2.14,2.24,2.73
			c1.49,0.58,3.18,0.88,5.07,0.88c1.82,0,3.49-0.29,5.02-0.88c1.53-0.59,2.29-1.5,2.29-2.73v-52.43c0-3.77,0.73-6.33,2.19-7.7
			s3.62-2.05,6.48-2.05h31.48c1.23,0,2.16-0.76,2.78-2.29c0.62-1.53,0.93-3.2,0.93-5.02
			C1783.02,1008.94,1782.71,1007.25,1782.09,1005.75z"/>
	</g>
	<g>
		<path class="st23" d="M975.42,1115.47v-0.07c0-7.41,5.55-13.48,13.45-13.48c4.02,0,6.67,1.19,8.94,2.94
			c0.48,0.41,0.89,0.97,0.89,1.82c0,1.3-0.97,2.23-2.27,2.23c-0.63,0-1.08-0.19-1.38-0.45c-1.79-1.45-3.69-2.35-6.22-2.35
			c-4.95,0-8.6,4.13-8.6,9.2v0.07c0,5.1,3.61,9.24,8.6,9.24c2.79,0,4.62-0.89,6.52-2.49c0.34-0.3,0.82-0.52,1.38-0.52
			c1.15,0,2.16,0.97,2.16,2.12c0,0.71-0.34,1.23-0.75,1.64c-2.49,2.2-5.25,3.5-9.46,3.5
			C981.09,1128.88,975.42,1122.96,975.42,1115.47z"/>
		<path class="st23" d="M1004.07,1104.67c0-1.3,1.01-2.31,2.31-2.31h9.31c3.28,0,5.85,0.97,7.52,2.61c1.38,1.45,2.16,3.35,2.16,5.62
			v0.07c0,4.21-2.42,6.67-5.92,7.78l4.99,6.29c0.45,0.56,0.74,1.04,0.74,1.75c0,1.3-1.04,2.12-2.2,2.12c-1.04,0-1.68-0.48-2.23-1.19
			l-6.33-8.08h-5.77v7c0,1.3-0.97,2.27-2.27,2.27c-1.3,0-2.31-0.97-2.31-2.27V1104.67z M1015.35,1115.28c3.28,0,5.36-1.68,5.36-4.36
			v-0.07c0-2.83-1.97-4.32-5.4-4.32h-6.67v8.75H1015.35z"/>
		<path class="st23" d="M1033.3,1128.43c-1.3,0-2.31-1.01-2.31-2.31v-21.45c0-1.3,1.01-2.31,2.31-2.31h15.16
			c1.15,0,2.05,0.89,2.05,2.05c0,1.15-0.89,2.05-2.05,2.05h-12.89v6.78h11.21c1.15,0,2.05,0.93,2.05,2.09
			c0,1.15-0.89,2.01-2.05,2.01h-11.21v7h13.07c1.15,0,2.05,0.89,2.05,2.05s-0.89,2.05-2.05,2.05H1033.3z"/>
		<path class="st23" d="M1054.46,1125.45l9.68-21.6c0.56-1.15,1.45-1.86,2.76-1.86h0.22c1.3,0,2.16,0.71,2.72,1.86l9.68,21.6
			c0.19,0.34,0.26,0.63,0.26,0.97c0,1.23-0.93,2.2-2.16,2.2c-1.08,0-1.83-0.6-2.23-1.6l-2.12-4.88h-12.66l-2.2,5.03
			c-0.41,0.97-1.12,1.45-2.12,1.45c-1.19,0-2.12-0.93-2.12-2.12C1054.16,1126.2,1054.27,1125.86,1054.46,1125.45z M1071.52,1118.08
			l-4.58-10.54l-4.58,10.54H1071.52z"/>
		<path class="st23" d="M1088.17,1106.61h-6.33c-1.19,0-2.12-0.97-2.12-2.12c0-1.15,0.93-2.12,2.12-2.12h17.32
			c1.15,0,2.09,0.97,2.09,2.12c0,1.15-0.93,2.12-2.09,2.12h-6.37v19.74c0,1.3-1.01,2.27-2.31,2.27s-2.31-0.97-2.31-2.27V1106.61z"/>
		<path class="st23" d="M1108.2,1128.43c-1.3,0-2.31-1.01-2.31-2.31v-21.45c0-1.3,1.01-2.31,2.31-2.31h15.16
			c1.15,0,2.05,0.89,2.05,2.05c0,1.15-0.89,2.05-2.05,2.05h-12.89v6.78h11.21c1.15,0,2.05,0.93,2.05,2.09
			c0,1.15-0.89,2.01-2.05,2.01h-11.21v7h13.07c1.15,0,2.05,0.89,2.05,2.05s-0.89,2.05-2.05,2.05H1108.2z"/>
		<path class="st23" d="M1140.42,1105.3c-0.11-0.3-0.19-0.6-0.19-0.89c0-1.3,1.04-2.23,2.35-2.23c1.15,0,1.97,0.67,2.27,1.68
			l6,17.91l5.88-17.84c0.41-1.08,1.15-1.82,2.31-1.82h0.34c1.15,0,1.97,0.75,2.31,1.82l5.88,17.84l6-17.95
			c0.34-0.93,1.08-1.64,2.23-1.64c1.23,0,2.27,0.97,2.27,2.2c0,0.3-0.11,0.67-0.22,0.93l-7.71,21.6c-0.41,1.15-1.23,1.9-2.38,1.9
			h-0.45c-1.15,0-1.94-0.71-2.35-1.9l-5.81-17.02l-5.81,17.02c-0.41,1.19-1.23,1.9-2.38,1.9h-0.45c-1.15,0-1.94-0.71-2.38-1.9
			L1140.42,1105.3z"/>
		<path class="st23" d="M1180.87,1115.47v-0.07c0-7.3,5.66-13.48,13.67-13.48c8.01,0,13.59,6.07,13.59,13.41v0.07
			c0,7.3-5.66,13.48-13.67,13.48C1186.45,1128.88,1180.87,1122.81,1180.87,1115.47z M1203.32,1115.47v-0.07
			c0-5.06-3.65-9.27-8.86-9.27c-5.18,0-8.79,4.13-8.79,9.2v0.07c0,5.07,3.65,9.24,8.86,9.24
			C1199.71,1124.63,1203.32,1120.54,1203.32,1115.47z"/>
		<path class="st23" d="M1213.68,1104.67c0-1.3,1.01-2.31,2.31-2.31h9.31c3.28,0,5.85,0.97,7.52,2.61c1.38,1.45,2.16,3.35,2.16,5.62
			v0.07c0,4.21-2.42,6.67-5.92,7.78l4.99,6.29c0.45,0.56,0.74,1.04,0.74,1.75c0,1.3-1.04,2.12-2.2,2.12c-1.04,0-1.68-0.48-2.23-1.19
			l-6.33-8.08h-5.77v7c0,1.3-0.97,2.27-2.27,2.27c-1.3,0-2.31-0.97-2.31-2.27V1104.67z M1224.96,1115.28c3.28,0,5.36-1.68,5.36-4.36
			v-0.07c0-2.83-1.97-4.32-5.4-4.32h-6.67v8.75H1224.96z"/>
		<path class="st23" d="M1240.61,1104.45c0-1.3,1.01-2.27,2.31-2.27c1.3,0,2.27,0.97,2.27,2.27v19.81h11.81
			c1.15,0,2.09,0.93,2.09,2.09s-0.93,2.09-2.09,2.09h-14.08c-1.3,0-2.31-1.01-2.31-2.31V1104.45z"/>
		<path class="st23" d="M1263.66,1104.67c0-1.3,1.01-2.31,2.31-2.31h7.41c8.19,0,13.85,5.62,13.85,12.96v0.07
			c0,7.34-5.66,13.04-13.85,13.04h-7.41c-1.3,0-2.31-1.01-2.31-2.31V1104.67z M1273.38,1124.26c5.47,0,9.05-3.69,9.05-8.79v-0.07
			c0-5.1-3.58-8.86-9.05-8.86h-5.14v17.73H1273.38z"/>
		<path class="st23" d="M1291.74,1125.53c-0.56-0.41-0.89-1-0.89-1.75c0-1.19,0.97-2.12,2.16-2.12c0.63,0,1.04,0.15,1.34,0.41
			c2.2,1.75,4.47,2.68,7.3,2.68s4.62-1.34,4.62-3.28v-0.07c0-1.82-1.04-2.9-5.88-3.99c-5.55-1.3-8.68-3.02-8.68-7.78v-0.07
			c0-4.47,3.72-7.56,8.9-7.56c3.28,0,5.88,0.82,8.27,2.42c0.56,0.3,1.01,0.93,1.01,1.82c0,1.19-0.97,2.12-2.16,2.12
			c-0.41,0-0.82-0.11-1.19-0.34c-2.05-1.3-3.91-1.97-6-1.97c-2.68,0-4.25,1.34-4.25,3.09v0.07c0,2.01,1.19,2.9,6.22,4.1
			c5.48,1.42,8.34,3.28,8.34,7.64v0.07c0,4.92-3.84,7.78-9.31,7.78C1297.93,1128.8,1294.69,1127.72,1291.74,1125.53z"/>
		<path class="st23" d="M1325.94,1125.45l9.68-21.6c0.56-1.15,1.45-1.86,2.76-1.86h0.22c1.3,0,2.16,0.71,2.72,1.86l9.68,21.6
			c0.19,0.34,0.26,0.63,0.26,0.97c0,1.23-0.93,2.2-2.16,2.2c-1.08,0-1.82-0.6-2.23-1.6l-2.12-4.88h-12.66l-2.2,5.03
			c-0.41,0.97-1.12,1.45-2.12,1.45c-1.19,0-2.12-0.93-2.12-2.12C1325.64,1126.2,1325.75,1125.86,1325.94,1125.45z M1342.99,1118.08
			l-4.58-10.54l-4.58,10.54H1342.99z"/>
		<path class="st23" d="M1359.64,1106.61h-6.33c-1.19,0-2.12-0.97-2.12-2.12c0-1.15,0.93-2.12,2.12-2.12h17.32
			c1.15,0,2.09,0.97,2.09,2.12c0,1.15-0.93,2.12-2.09,2.12h-6.37v19.74c0,1.3-1.01,2.27-2.31,2.27s-2.31-0.97-2.31-2.27V1106.61z"/>
		<path class="st23" d="M1394.95,1106.61h-6.33c-1.19,0-2.12-0.97-2.12-2.12c0-1.15,0.93-2.12,2.12-2.12h17.32
			c1.15,0,2.09,0.97,2.09,2.12c0,1.15-0.93,2.12-2.09,2.12h-6.37v19.74c0,1.3-1.01,2.27-2.31,2.27s-2.31-0.97-2.31-2.27V1106.61z"/>
		<path class="st23" d="M1412.68,1104.45c0-1.3,1.01-2.27,2.31-2.27c1.3,0,2.27,0.97,2.27,2.27v8.75h12.44v-8.75
			c0-1.3,0.97-2.27,2.27-2.27c1.3,0,2.31,0.97,2.31,2.27v21.9c0,1.3-1.01,2.27-2.31,2.27c-1.3,0-2.27-0.97-2.27-2.27v-8.9h-12.44
			v8.9c0,1.3-0.97,2.27-2.27,2.27c-1.3,0-2.31-0.97-2.31-2.27V1104.45z"/>
		<path class="st23" d="M1443.29,1128.43c-1.3,0-2.31-1.01-2.31-2.31v-21.45c0-1.3,1.01-2.31,2.31-2.31h15.16
			c1.15,0,2.05,0.89,2.05,2.05c0,1.15-0.89,2.05-2.05,2.05h-12.89v6.78h11.21c1.15,0,2.05,0.93,2.05,2.09
			c0,1.15-0.89,2.01-2.05,2.01h-11.21v7h13.07c1.15,0,2.05,0.89,2.05,2.05s-0.89,2.05-2.05,2.05H1443.29z"/>
		<path class="st23" d="M1476.44,1125.53c-0.56-0.41-0.89-1-0.89-1.75c0-1.19,0.97-2.12,2.16-2.12c0.63,0,1.04,0.15,1.34,0.41
			c2.2,1.75,4.47,2.68,7.3,2.68s4.62-1.34,4.62-3.28v-0.07c0-1.82-1.04-2.9-5.88-3.99c-5.55-1.3-8.68-3.02-8.68-7.78v-0.07
			c0-4.47,3.72-7.56,8.9-7.56c3.28,0,5.88,0.82,8.27,2.42c0.56,0.3,1.01,0.93,1.01,1.82c0,1.19-0.97,2.12-2.16,2.12
			c-0.41,0-0.82-0.11-1.19-0.34c-2.05-1.3-3.91-1.97-6-1.97c-2.68,0-4.25,1.34-4.25,3.09v0.07c0,2.01,1.19,2.9,6.22,4.1
			c5.48,1.42,8.34,3.28,8.34,7.64v0.07c0,4.92-3.84,7.78-9.31,7.78C1482.62,1128.8,1479.38,1127.72,1476.44,1125.53z"/>
		<path class="st23" d="M1500.95,1104.67c0-1.3,1.01-2.31,2.31-2.31h7.97c6.11,0,9.91,3.46,9.91,8.71v0.07
			c0,5.81-4.66,8.9-10.43,8.9h-5.18v6.29c0,1.3-0.97,2.27-2.27,2.27c-1.3,0-2.31-0.97-2.31-2.27V1104.67z M1510.86,1115.92
			c3.46,0,5.62-1.94,5.62-4.66v-0.07c0-3.09-2.2-4.66-5.62-4.66h-5.33v9.39H1510.86z"/>
		<path class="st23" d="M1528.14,1128.43c-1.3,0-2.31-1.01-2.31-2.31v-21.45c0-1.3,1.01-2.31,2.31-2.31h15.16
			c1.15,0,2.05,0.89,2.05,2.05c0,1.15-0.89,2.05-2.05,2.05h-12.89v6.78h11.21c1.15,0,2.05,0.93,2.05,2.09
			c0,1.15-0.89,2.01-2.05,2.01h-11.21v7h13.07c1.15,0,2.05,0.89,2.05,2.05s-0.89,2.05-2.05,2.05H1528.14z"/>
		<path class="st23" d="M1553.09,1128.43c-1.3,0-2.31-1.01-2.31-2.31v-21.45c0-1.3,1.01-2.31,2.31-2.31h15.16
			c1.15,0,2.05,0.89,2.05,2.05c0,1.15-0.89,2.05-2.05,2.05h-12.89v6.78h11.21c1.15,0,2.05,0.93,2.05,2.09
			c0,1.15-0.89,2.01-2.05,2.01h-11.21v7h13.07c1.15,0,2.05,0.89,2.05,2.05s-0.89,2.05-2.05,2.05H1553.09z"/>
		<path class="st23" d="M1575.74,1104.67c0-1.3,1.01-2.31,2.31-2.31h7.41c8.19,0,13.85,5.62,13.85,12.96v0.07
			c0,7.34-5.66,13.04-13.85,13.04h-7.41c-1.3,0-2.31-1.01-2.31-2.31V1104.67z M1585.46,1124.26c5.47,0,9.05-3.69,9.05-8.79v-0.07
			c0-5.1-3.58-8.86-9.05-8.86h-5.14v17.73H1585.46z"/>
		<path class="st23" d="M1614.88,1115.47v-0.07c0-7.3,5.66-13.48,13.67-13.48c8.01,0,13.59,6.07,13.59,13.41v0.07
			c0,7.3-5.66,13.48-13.67,13.48C1620.47,1128.88,1614.88,1122.81,1614.88,1115.47z M1637.34,1115.47v-0.07
			c0-5.06-3.65-9.27-8.86-9.27c-5.18,0-8.79,4.13-8.79,9.2v0.07c0,5.07,3.65,9.24,8.86,9.24
			C1633.73,1124.63,1637.34,1120.54,1637.34,1115.47z"/>
		<path class="st23" d="M1647.69,1104.67c0-1.3,1.01-2.31,2.31-2.31h15.2c1.15,0,2.09,0.93,2.09,2.09c0,1.15-0.93,2.09-2.09,2.09
			h-12.92v7.11h11.25c1.15,0,2.09,0.93,2.09,2.09s-0.93,2.09-2.09,2.09h-11.25v8.53c0,1.3-0.97,2.27-2.27,2.27
			c-1.3,0-2.31-0.97-2.31-2.27V1104.67z"/>
		<path class="st23" d="M1689.7,1106.61h-6.33c-1.19,0-2.12-0.97-2.12-2.12c0-1.15,0.93-2.12,2.12-2.12h17.32
			c1.15,0,2.09,0.97,2.09,2.12c0,1.15-0.93,2.12-2.09,2.12h-6.37v19.74c0,1.3-1.01,2.27-2.31,2.27s-2.31-0.97-2.31-2.27V1106.61z"/>
		<path class="st23" d="M1707.43,1104.45c0-1.3,1.01-2.27,2.31-2.27c1.3,0,2.27,0.97,2.27,2.27v8.75h12.44v-8.75
			c0-1.3,0.97-2.27,2.27-2.27c1.3,0,2.31,0.97,2.31,2.27v21.9c0,1.3-1.01,2.27-2.31,2.27c-1.3,0-2.27-0.97-2.27-2.27v-8.9h-12.44
			v8.9c0,1.3-0.97,2.27-2.27,2.27c-1.3,0-2.31-0.97-2.31-2.27V1104.45z"/>
		<path class="st23" d="M1734.58,1115.47v-0.07c0-7.3,5.66-13.48,13.67-13.48c8.01,0,13.59,6.07,13.59,13.41v0.07
			c0,7.3-5.66,13.48-13.67,13.48C1740.17,1128.88,1734.58,1122.81,1734.58,1115.47z M1757.04,1115.47v-0.07
			c0-5.06-3.65-9.27-8.86-9.27c-5.18,0-8.79,4.13-8.79,9.2v0.07c0,5.07,3.65,9.24,8.86,9.24
			C1753.43,1124.63,1757.04,1120.54,1757.04,1115.47z"/>
		<path class="st23" d="M1766.99,1117.37v-12.92c0-1.3,1.01-2.27,2.31-2.27s2.27,0.97,2.27,2.27v12.74c0,4.88,2.46,7.41,6.59,7.41
			c4.06,0,6.56-2.42,6.56-7.22v-12.92c0-1.3,1.01-2.27,2.31-2.27c1.3,0,2.27,0.97,2.27,2.27v12.7c0,7.78-4.39,11.69-11.21,11.69
			C1771.35,1128.84,1766.99,1124.93,1766.99,1117.37z"/>
		<path class="st23" d="M1794.44,1115.47v-0.07c0-7.3,5.55-13.48,13.45-13.48c3.91,0,6.52,0.89,8.9,2.64
			c0.45,0.34,0.93,0.97,0.93,1.86c0,1.23-0.97,2.27-2.27,2.27c-0.6,0-1.01-0.26-1.42-0.52c-1.68-1.23-3.5-2.05-6.33-2.05
			c-4.77,0-8.45,4.25-8.45,9.2v0.07c0,5.36,3.54,9.31,8.86,9.31c2.49,0,4.69-0.78,6.29-1.97v-4.88h-5.14
			c-1.15,0-2.05-0.82-2.05-1.97s0.89-2.01,2.05-2.01h7.26c1.3,0,2.31,1.01,2.31,2.31v6.96c0,1.27-0.52,2.23-1.6,2.91
			c-2.23,1.49-5.36,2.83-9.27,2.83C1799.8,1128.88,1794.44,1123.07,1794.44,1115.47z"/>
		<path class="st23" d="M1824.79,1104.45c0-1.3,1.01-2.27,2.31-2.27c1.3,0,2.27,0.97,2.27,2.27v8.75h12.44v-8.75
			c0-1.3,0.97-2.27,2.27-2.27c1.3,0,2.31,0.97,2.31,2.27v21.9c0,1.3-1.01,2.27-2.31,2.27c-1.3,0-2.27-0.97-2.27-2.27v-8.9h-12.44
			v8.9c0,1.3-0.97,2.27-2.27,2.27c-1.3,0-2.31-0.97-2.31-2.27V1104.45z"/>
		<path class="st23" d="M1859.5,1106.61h-6.33c-1.19,0-2.12-0.97-2.12-2.12c0-1.15,0.93-2.12,2.12-2.12h17.32
			c1.15,0,2.09,0.97,2.09,2.12c0,1.15-0.93,2.12-2.09,2.12h-6.37v19.74c0,1.3-1.01,2.27-2.31,2.27s-2.31-0.97-2.31-2.27V1106.61z"/>
	</g>
</g>
</svg>
